<?xml version="1.0" standalone="no"?>
<!DOCTYPE svg PUBLIC "-//W3C//DTD SVG 20010904//EN"
 "http://www.w3.org/TR/2001/REC-SVG-20010904/DTD/svg10.dtd">
<svg version="1.0" xmlns="http://www.w3.org/2000/svg"
 width="512.000000pt" height="512.000000pt" viewBox="0 0 512.000000 512.000000"
 preserveAspectRatio="xMidYMid meet">

<g transform="translate(0.000000,512.000000) scale(0.100000,-0.100000)"
fill="#000000" stroke="none">
<path d="M1373 3920 c-96 -20 -178 -85 -222 -179 l-26 -56 0 -885 0 -885 25
-50 c46 -94 138 -163 238 -180 l42 -7 0 -191 c0 -226 7 -263 55 -283 19 -8 42
-11 54 -6 10 4 58 43 105 87 166 153 334 255 527 319 214 71 185 69 924 75
l670 6 50 25 c64 31 124 91 155 155 l25 50 0 885 0 885 -26 56 c-33 71 -87
125 -158 158 l-56 26 -1170 2 c-643 0 -1189 -3 -1212 -7z m2056 -597 c11 -10
24 -32 27 -50 5 -26 1 -37 -19 -57 l-26 -26 -634 0 c-627 0 -635 0 -661 21
-19 15 -26 30 -26 54 0 24 7 39 26 54 26 21 34 21 659 21 588 0 634 -1 654
-17z m6 -438 c14 -13 25 -36 25 -50 0 -14 -11 -37 -25 -50 l-24 -25 -851 0
-851 0 -26 26 c-20 20 -24 31 -19 57 3 18 16 40 27 50 20 16 76 17 871 17
l849 0 24 -25z m6 -434 c26 -32 24 -67 -6 -96 l-24 -25 -851 0 -851 0 -24 25
c-14 13 -25 31 -25 39 0 27 22 64 44 74 14 7 297 10 869 9 l849 -2 19 -24z"/>
</g>
</svg>
