<?xml version="1.0" standalone="no"?>
<!DOCTYPE svg PUBLIC "-//W3C//DTD SVG 20010904//EN"
 "http://www.w3.org/TR/2001/REC-SVG-20010904/DTD/svg10.dtd">
<svg version="1.0" xmlns="http://www.w3.org/2000/svg"
 width="1600.000000pt" height="1690.000000pt" viewBox="0 0 1600.000000 1690.000000"
 preserveAspectRatio="xMidYMid meet">

<g transform="translate(0.000000,1690.000000) scale(0.100000,-0.100000)"
fill="#000000" stroke="none">
<path d="M7740 12039 c-395 -34 -768 -136 -1113 -304 -891 -433 -1522 -1250
-1715 -2220 -76 -377 -81 -764 -16 -1155 67 -408 246 -853 487 -1215 447 -669
1172 -1160 1957 -1325 621 -131 1280 -73 1850 162 690 286 1250 795 1602 1458
351 660 449 1469 268 2210 -187 765 -655 1430 -1322 1878 -42 29 -80 52 -84
52 -3 0 -18 9 -34 20 -15 11 -74 45 -131 75 -463 249 -979 378 -1493 374 -89
-1 -204 -5 -256 -10z m953 -1184 c126 -26 235 -100 306 -206 80 -120 78 -102
87 -850 l7 -664 204 -200 c113 -110 208 -201 212 -203 12 -4 242 228 236 239
-4 5 0 9 8 9 8 0 58 43 111 96 54 52 100 93 103 91 2 -3 -91 -102 -208 -221
-118 -119 -217 -222 -221 -229 -6 -12 194 -217 435 -445 49 -46 87 -87 85 -92
-2 -5 -122 108 -268 250 -146 143 -270 260 -276 260 -5 0 -173 -162 -371 -361
l-361 -361 244 -243 c134 -133 244 -245 244 -249 0 -3 -3 -6 -6 -6 -3 0 -115
110 -249 244 l-243 245 -196 -197 c-107 -108 -198 -193 -202 -190 -4 4 249
263 560 574 l568 568 -206 203 -206 203 0 -47 c0 -81 -20 -175 -50 -240 -15
-34 -26 -64 -24 -67 2 -3 1 -4 -3 -1 -8 6 -69 -76 -65 -88 1 -5 -2 -6 -7 -2
-6 3 -32 -11 -58 -31 -26 -20 -64 -44 -83 -52 -93 -39 -124 -42 -542 -42
l-407 0 -287 -286 -287 -286 36 -36 c101 -105 137 -145 133 -149 -2 -3 -31 22
-64 54 -33 32 -74 71 -90 86 l-29 28 -54 -53 c-30 -29 -63 -60 -74 -68 -19
-14 -19 -14 -5 5 8 11 39 44 67 73 29 29 53 55 53 58 0 3 -23 28 -52 55 -28
27 -49 51 -45 55 3 4 23 -11 44 -32 73 -75 49 -87 274 140 112 113 209 210
214 216 6 6 38 37 73 70 34 33 62 62 62 65 0 3 -140 5 -311 5 l-312 0 -46 -37
c-25 -21 -51 -42 -57 -48 -6 -5 -47 -39 -92 -75 l-81 -64 35 -34 c20 -19 32
-37 29 -40 -3 -4 -21 11 -39 32 l-32 39 -240 -196 c-131 -109 -242 -197 -246
-197 -5 0 -8 140 -8 310 l0 310 -27 1 c-53 1 -134 24 -194 54 -61 31 -149 113
-189 175 -18 28 -42 78 -53 113 -21 61 -22 78 -25 772 -2 461 1 734 8 780 30
201 183 367 381 409 97 21 2273 22 2372 1z m877 -974 c0 -5 -11 -12 -25 -15
-14 -4 -25 -10 -25 -14 0 -11 -171 2 -202 16 -16 6 -28 14 -28 17 0 3 63 5
140 5 77 0 140 -4 140 -9z m451 -673 c-22 -23 -44 -39 -47 -35 -4 4 12 27 37
52 24 24 46 40 47 34 2 -5 -14 -28 -37 -51z m36 -30 c-3 -7 -5 -2 -5 12 0 14
2 19 5 13 2 -7 2 -19 0 -25z m-2979 -1003 c42 -41 73 -77 70 -81 -6 -6 -158
138 -158 150 0 14 16 2 88 -69z m2913 -387 c-18 -29 -21 -30 -21 -11 0 22 28
58 37 49 3 -3 -4 -20 -16 -38z m-71 -86 c0 -10 -76 -66 -102 -75 -10 -4 -18
-2 -18 3 0 5 10 12 23 15 12 3 28 19 36 36 9 20 20 29 37 29 13 0 24 -4 24 -8z
m-213 -27 c31 -22 34 -49 6 -81 -24 -29 -24 -29 -18 -4 6 23 5 23 -8 8 -27
-34 -75 -10 -62 31 8 26 38 35 67 21 22 -11 22 -10 4 4 -25 20 -45 20 -68 -1
-22 -20 -23 -46 -2 -79 17 -25 17 -25 -9 -13 -30 13 -41 47 -28 82 18 45 76
61 118 32z m-130 -347 l0 -61 -24 27 c-26 31 -28 48 -11 76 23 37 35 23 35
-42z m-59 -119 c39 -38 46 -59 20 -59 -6 0 -28 16 -50 35 -36 33 -58 38 -58
13 0 -6 16 -29 36 -51 28 -30 33 -41 23 -48 -10 -6 -26 3 -51 28 -23 23 -42
33 -52 30 -19 -8 -21 -31 -3 -49 6 -7 19 -22 27 -33 12 -17 10 -16 -11 3 -14
12 -30 22 -36 22 -14 0 -34 47 -27 65 4 8 17 18 30 21 13 3 24 12 24 19 0 22
30 45 59 45 19 0 41 -13 69 -41z m58 -6 c-10 -10 -19 5 -10 18 6 11 8 11 12 0
2 -7 1 -15 -2 -18z"/>
<path d="M9651 7627 c-5 -7 -6 -19 -2 -26 6 -9 11 -10 15 -2 4 6 4 11 -1 12
-4 0 1 4 11 8 17 6 17 8 3 14 -8 3 -20 0 -26 -6z"/>
<path d="M0 450 l0 -450 8000 0 8000 0 0 450 0 450 -8000 0 -8000 0 0 -450z
m1680 152 c24 -29 26 -71 5 -98 -9 -12 -14 -14 -15 -6 0 9 -8 7 -26 -7 -15
-12 -34 -21 -44 -21 -10 0 -29 9 -44 21 -20 15 -26 29 -26 57 0 44 7 57 42 75
37 19 84 10 108 -21z m11068 -80 c6 -9 12 -42 12 -74 0 -50 -3 -60 -25 -74
-53 -35 -95 3 -95 87 0 73 68 112 108 61z m139 2 c22 -22 25 -32 20 -71 -5
-50 -28 -78 -69 -88 -39 -10 -37 17 2 32 35 13 40 32 7 26 -56 -11 -79 88 -27
114 34 17 37 17 67 -13z m141 10 c32 -22 28 -58 -14 -104 l-36 -40 41 0 c30 0
41 -4 41 -15 0 -12 -13 -15 -59 -15 -33 0 -62 4 -66 9 -3 6 15 33 40 61 28 31
44 58 41 67 -3 8 -6 17 -6 19 0 11 -31 2 -36 -11 -7 -16 -44 -21 -44 -6 0 12
49 51 64 51 6 0 22 -7 34 -16z m162 -10 c12 -11 12 -20 3 -44 -7 -18 -7 -32
-2 -36 17 -10 9 -53 -13 -68 -31 -22 -61 -20 -83 4 -23 26 -12 37 19 20 14 -7
32 -10 41 -6 23 9 14 40 -13 44 -27 4 -29 32 -2 32 13 0 20 7 20 19 0 25 -18
37 -33 22 -15 -15 -50 -14 -45 2 12 35 76 41 108 11z m147 -3 c21 -27 16 -118
-7 -141 -47 -47 -100 -9 -100 73 0 53 12 80 40 90 21 7 53 -3 67 -22z m141 7
c14 -12 16 -54 2 -63 -6 -4 -5 -14 4 -28 31 -49 -29 -96 -83 -66 -32 18 -39
39 -12 39 12 0 21 -5 21 -11 0 -6 10 -9 23 -7 14 2 22 10 22 23 0 13 -8 21
-22 23 -29 4 -30 32 -3 32 25 0 37 27 21 43 -9 9 -16 9 -31 -1 -26 -16 -40
-15 -40 3 0 31 64 39 98 13z m150 0 c22 -19 13 -57 -24 -98 l-36 -40 42 0 c29
0 40 -4 38 -12 -3 -8 -28 -14 -66 -16 -73 -3 -79 8 -31 54 17 16 37 41 45 55
12 23 11 29 -1 39 -12 10 -19 10 -33 -4 -33 -29 -56 -17 -29 16 22 28 63 31
95 6z m226 8 c61 -26 71 -102 20 -153 -21 -21 -32 -24 -62 -19 -89 14 -109
136 -28 172 38 16 31 16 70 0z m246 4 c14 0 40 -30 40 -46 0 -20 -23 -17 -43
6 -22 26 -32 25 -51 -2 -41 -58 10 -146 54 -93 16 19 40 19 40 1 0 -19 -39
-46 -66 -46 -12 0 -33 9 -48 21 -45 35 -34 138 17 159 12 5 28 7 35 4 8 -2 17
-4 22 -4z m250 -86 c0 -86 -2 -95 -17 -92 -15 3 -18 17 -21 96 -3 87 -2 92 18
92 19 0 20 -6 20 -96z m898 73 c22 -17 13 -52 -24 -95 l-36 -42 42 0 c29 0 40
-4 38 -12 -6 -17 -128 -24 -128 -7 0 6 18 31 40 55 39 43 50 76 29 89 -5 4
-18 0 -28 -9 -32 -29 -54 -17 -28 16 21 27 64 30 95 5z m149 -6 c21 -27 16
-118 -7 -141 -47 -47 -100 -9 -100 73 0 53 12 80 40 90 21 7 53 -3 67 -22z
m145 5 c15 -23 7 -56 -22 -89 -16 -19 -30 -37 -30 -41 0 -3 16 -6 35 -6 24 0
35 -5 35 -15 0 -12 -13 -15 -60 -15 -74 0 -78 14 -20 76 22 24 40 51 40 59 0
24 -31 31 -46 11 -7 -10 -21 -16 -31 -14 -16 3 -15 7 9 31 22 22 33 26 55 21
16 -4 31 -12 35 -18z m138 4 c26 -26 28 -124 3 -152 -43 -48 -103 -3 -103 77
0 45 15 73 43 85 32 13 35 12 57 -10z m-3592 -77 c-3 -74 -6 -88 -20 -91 -16
-3 -18 6 -18 87 0 85 1 91 20 91 20 0 21 -5 18 -87z m147 62 c57 -56 18 -143
-68 -152 l-47 -6 0 92 0 91 45 0 c35 0 52 -6 70 -25z m195 -65 c0 -73 -3 -90
-15 -90 -12 0 -15 15 -15 71 0 66 -1 70 -20 64 -28 -9 -26 19 3 33 44 21 47
17 47 -78z m160 81 c0 -5 -9 -13 -20 -16 -11 -3 -24 -14 -29 -24 -8 -15 -6
-17 18 -13 54 8 82 -57 41 -98 -24 -24 -48 -25 -78 -4 -31 22 -32 107 0 141
21 23 68 32 68 14z m-12230 -110 c0 -84 -3 -102 -21 -125 -29 -37 -89 -37
-118 0 -31 39 -28 94 6 128 29 29 66 32 71 4 2 -10 -6 -19 -20 -23 -28 -9 -38
-23 -38 -51 0 -33 25 -49 55 -36 24 11 25 16 25 100 0 90 3 102 27 102 10 0
13 -23 13 -99z m13904 63 c37 -36 27 -106 -16 -120 -66 -21 -117 67 -68 116
24 24 63 26 84 4z m216 -4 c41 -41 12 -120 -43 -120 -32 0 -60 33 -60 70 0 61
62 91 103 50z m120 5 c0 -8 -9 -17 -20 -20 -16 -5 -20 -15 -20 -56 0 -43 -3
-50 -17 -47 -13 2 -19 15 -21 47 -5 73 2 89 43 89 22 0 35 -5 35 -13z m132
-70 c-3 -88 -14 -105 -63 -105 -24 0 -64 29 -43 31 5 0 22 2 38 2 16 1 31 8
34 15 3 9 -3 11 -20 7 -37 -9 -63 16 -63 63 0 56 18 73 74 70 l46 -3 -3 -80z
m68 30 c0 -48 3 -55 19 -55 17 0 20 8 23 52 2 41 7 54 21 56 15 3 17 -5 17
-66 l0 -69 -43 0 c-62 -1 -70 7 -75 76 -4 57 -3 61 17 61 19 0 21 -6 21 -55z
m180 39 c0 -7 -9 -18 -20 -24 -15 -8 -20 -21 -20 -55 0 -33 -4 -45 -15 -45
-12 0 -15 14 -15 69 l0 69 35 0 c23 0 35 -5 35 -14z m50 -26 c0 -51 12 -73 34
-65 12 5 16 20 16 57 0 43 3 51 17 48 14 -2 17 -14 16 -58 -1 -30 -1 -60 -2
-66 -1 -14 -81 -15 -98 -2 -20 16 -17 128 2 128 11 0 15 -11 15 -42z m-13590
13 c0 -17 8 -20 48 -23 39 -3 47 -6 47 -23 0 -17 -8 -20 -47 -23 -47 -3 -48
-4 -48 -36 0 -41 23 -64 45 -46 8 7 15 18 15 26 0 18 20 28 32 16 13 -13 3
-55 -18 -76 -22 -23 -64 -20 -91 6 -21 19 -23 30 -23 110 0 81 2 88 20 88 13
0 20 -7 20 -19z m-946 -36 c3 -9 -4 -21 -19 -31 -20 -13 -25 -25 -27 -72 -2
-45 -7 -58 -20 -60 -16 -3 -18 5 -18 67 0 63 2 71 26 90 32 25 50 27 58 6z
m164 -1 c30 -21 28 -34 -13 -74 -30 -30 -35 -31 -41 -15 -4 10 -2 26 5 36 9
15 8 19 -4 19 -8 0 -19 -9 -25 -21 -9 -16 -8 -26 5 -45 12 -19 24 -24 60 -24
48 0 64 -13 44 -36 -9 -11 -23 -13 -58 -8 -61 9 -76 17 -91 53 -15 38 -7 75
25 107 28 28 61 31 93 8z m202 -2 c27 -22 46 -123 28 -155 -16 -30 -32 -4 -38
61 -5 52 -7 57 -31 60 -54 6 -65 -69 -14 -88 29 -11 33 -40 6 -40 -33 0 -51
11 -66 41 -23 43 -18 77 14 110 34 33 69 37 101 11z m180 8 c14 -7 25 -7 38 1
31 20 71 3 88 -36 18 -44 18 -106 0 -131 -20 -27 -28 -14 -35 58 -5 54 -9 63
-26 63 -18 0 -20 -8 -23 -63 -3 -53 -6 -63 -20 -60 -13 2 -18 17 -22 63 -4 48
-9 61 -24 63 -26 5 -36 -15 -34 -70 2 -53 -3 -63 -27 -55 -10 5 -15 20 -15 51
0 96 43 146 100 116z m323 -4 c7 -17 -11 -36 -35 -36 -14 0 -18 -8 -18 -36 0
-36 -15 -73 -34 -86 -6 -4 -24 -8 -39 -8 -22 0 -28 4 -25 17 2 10 12 19 23 22
27 5 35 19 35 64 0 24 7 44 20 57 23 23 65 27 73 6z m262 -77 c0 -72 -2 -84
-17 -87 -16 -3 -18 6 -18 81 0 46 3 87 7 91 19 19 28 -7 28 -85z m170 80 c6 0
21 3 35 6 18 5 34 0 50 -13 22 -18 25 -28 25 -88 0 -57 -3 -69 -17 -72 -15 -3
-18 4 -18 46 0 63 -7 82 -31 82 -17 0 -19 -8 -19 -60 0 -45 -4 -62 -15 -67
-26 -10 -29 -3 -33 95 -2 29 -5 33 -24 30 -20 -3 -24 -10 -28 -63 -4 -47 -9
-61 -22 -63 -16 -3 -18 5 -18 64 0 56 4 72 22 92 18 19 29 22 53 17 16 -4 35
-7 40 -6z m279 0 c14 -7 27 -17 30 -24 5 -14 -50 -85 -66 -85 -18 0 -20 31 -3
50 17 19 17 20 -3 20 -15 0 -24 -8 -28 -27 -9 -36 7 -57 47 -63 22 -3 35 -11
37 -22 3 -15 -4 -18 -42 -18 -36 0 -48 5 -65 26 -35 44 -25 115 20 140 30 17
41 17 73 3z m274 -5 c26 -18 29 -49 6 -58 -11 -4 -22 1 -31 14 -8 11 -21 20
-29 20 -20 0 -38 -43 -30 -73 8 -33 32 -41 56 -17 30 30 65 8 42 -26 -10 -16
-48 -34 -70 -34 -31 0 -69 37 -76 74 -17 87 63 148 132 100z m179 -6 c33 -31
33 -109 -2 -143 -54 -54 -135 -8 -135 76 0 77 83 118 137 67z m179 11 c8 -7
14 -7 19 1 3 5 22 10 40 10 51 0 67 -30 63 -116 -3 -61 -5 -69 -23 -69 -18 0
-21 8 -25 70 -4 62 -7 70 -25 70 -18 0 -21 -8 -25 -70 -4 -62 -7 -70 -25 -70
-18 0 -21 8 -25 70 -4 62 -7 70 -25 70 -18 0 -21 -8 -25 -70 -4 -62 -7 -70
-25 -70 -18 0 -20 8 -23 79 -2 44 -1 85 2 91 6 15 105 19 122 4z m-522 -136
c10 -26 -23 -48 -42 -29 -8 8 -12 22 -9 30 8 21 43 20 51 -1z"/>
<path d="M1577 592 c-36 -39 -13 -97 35 -90 29 4 39 54 13 65 -19 7 -38 -15
-28 -31 4 -6 8 -5 11 2 5 17 22 15 22 -3 0 -21 -27 -30 -45 -15 -21 17 -19 44
5 65 28 25 66 7 79 -37 6 -23 9 -27 10 -12 1 30 -36 74 -63 74 -13 0 -30 -8
-39 -18z"/>
<path d="M12687 513 c-4 -3 -7 -30 -7 -60 0 -40 4 -55 16 -60 22 -8 34 14 34
63 0 48 -23 78 -43 57z"/>
<path d="M12831 506 c-18 -21 -9 -51 14 -51 15 0 20 7 20 29 0 33 -16 44 -34
22z"/>
<path d="M13272 508 c-23 -23 -11 -118 14 -118 24 0 39 46 28 87 -10 40 -23
50 -42 31z"/>
<path d="M13772 510 c-28 -26 -30 -90 -4 -113 28 -25 87 -22 106 5 37 52 5
128 -54 128 -14 0 -36 -9 -48 -20z m78 -15 c7 -9 9 -19 5 -23 -4 -4 -10 -1
-12 6 -7 17 -40 15 -47 -4 -9 -24 -8 -31 11 -49 16 -16 17 -16 30 1 7 9 16 14
20 11 14 -15 -25 -40 -51 -33 -22 5 -26 12 -26 44 0 57 40 83 70 47z"/>
<path d="M15331 501 c-23 -42 -11 -111 20 -111 34 0 36 116 2 127 -7 3 -16 -5
-22 -16z"/>
<path d="M15624 506 c-3 -7 -4 -35 -2 -62 3 -41 6 -49 23 -49 17 0 20 8 23 48
3 46 -9 77 -30 77 -5 0 -11 -6 -14 -14z"/>
<path d="M12160 450 c0 -62 5 -68 41 -50 14 8 19 21 19 48 0 41 -14 62 -42 62
-15 0 -18 -9 -18 -60z"/>
<path d="M12532 423 c2 -20 9 -28 23 -28 14 0 21 8 23 28 3 23 0 27 -23 27
-23 0 -26 -4 -23 -27z"/>
<path d="M14204 456 c-11 -28 0 -61 21 -61 16 0 20 7 20 35 0 25 -5 36 -18 38
-9 2 -20 -3 -23 -12z"/>
<path d="M14417 463 c-4 -3 -7 -19 -7 -35 0 -34 25 -47 48 -25 13 13 13 21 4
42 -11 24 -31 32 -45 18z"/>
<path d="M14654 456 c-11 -28 0 -61 21 -61 16 0 20 7 20 35 0 25 -5 36 -18 38
-9 2 -20 -3 -23 -12z"/>
<path d="M2451 396 c-7 -8 -11 -30 -9 -48 2 -27 8 -34 30 -36 22 -3 27 2 33
27 11 53 -26 91 -54 57z"/>
</g>
</svg>
