<svg xmlns="http://www.w3.org/2000/svg" viewBox="0 0 48 48"><defs><style>.cls-1{fill:#192835}</style></defs><g id="Chat"><path class="cls-1" d="M38 9.3a1 1 0 0 0-1 .26 1 1 0 0 0-.24 1A5 5 0 0 1 37 12v13a5 5 0 0 1-5 5H19a1 1 0 0 0-.71.29l-3.92 3.92a1 1 0 0 0-.25 1 1 1 0 0 0 .76.69A5.42 5.42 0 0 0 16 36h12.59l6.7 6.71A1 1 0 0 0 36 43a.84.84 0 0 0 .38-.08A1 1 0 0 0 37 42v-6.07A7 7 0 0 0 43 29V16a7 7 0 0 0-5-6.7zM41 29a5 5 0 0 1-5 5 1 1 0 0 0-1 1v4.59l-5.29-5.3A1 1 0 0 0 29 34H17.41l2-2H32a7 7 0 0 0 7-7V12a5 5 0 0 1 2 4z"/><path d="M41 16v13a5 5 0 0 1-5 5 1 1 0 0 0-1 1v4.59l-5.29-5.3A1 1 0 0 0 29 34H17.41l2-2H32a7 7 0 0 0 7-7V12a5 5 0 0 1 2 4z" style="fill:#4891d3"/><path class="cls-1" d="M38.7 10A7 7 0 0 0 32 5H12a7 7 0 0 0-7 7v13a7 7 0 0 0 5 6.7 7.43 7.43 0 0 0 1 .23V38a1 1 0 0 0 .62.92.84.84 0 0 0 .38.08 1 1 0 0 0 .71-.29l6.7-6.71H32a7 7 0 0 0 7-7V12a6.88 6.88 0 0 0-.3-2zM37 25a5 5 0 0 1-5 5H19a1 1 0 0 0-.71.29L13 35.59V31a1 1 0 0 0-1-1 4.72 4.72 0 0 1-1.45-.22A5 5 0 0 1 7 25V12a5 5 0 0 1 5-5h20a5 5 0 0 1 5 5z"/><path d="M37 12v13a5 5 0 0 1-5 5H19a1 1 0 0 0-.71.29L13 35.59V31a1 1 0 0 0-1-1 4.72 4.72 0 0 1-1.45-.22A5 5 0 0 1 7 25V12a5 5 0 0 1 5-5h20a5 5 0 0 1 5 5z" style="fill:#f5de0a"/><path class="cls-1" d="M32 15H12a1 1 0 0 1 0-2h20a1 1 0 0 1 0 2zM32 20H12a1 1 0 0 1 0-2h20a1 1 0 0 1 0 2zM32 25H12a1 1 0 0 1 0-2h20a1 1 0 0 1 0 2z"/></g></svg>